<svg xmlns="http://www.w3.org/2000/svg" version="1.1" xmlns:xlink="http://www.w3.org/1999/xlink" xmlns:svgjs="http://svgjs.dev/svgjs" width="2000" height="1500" viewBox="0 0 2000 1500"><rect width="2000" height="1500" fill="#4285f4"></rect><g transform="matrix(0.75,0,0,0.75,249.090909090909,282.7536437246963)"><svg viewBox="0 0 396 247" data-background-color="#4285f4" preserveAspectRatio="xMidYMid meet" height="1247" width="2000" xmlns="http://www.w3.org/2000/svg" xmlns:xlink="http://www.w3.org/1999/xlink"><g id="tight-bounds" transform="matrix(1,0,0,1,0.2400000000000091,-0.09999999999999432)"><svg viewBox="0 0 395.52 247.2" height="247.2" width="395.52"><g><svg></svg></g><g><svg viewBox="0 0 395.52 247.2" height="247.2" width="395.52"><g transform="matrix(1,0,0,1,75.54432,87.17291028899209)"><svg viewBox="0 0 244.43135999999998 72.85417942201583" height="72.85417942201583" width="244.43135999999998"><g><svg viewBox="0 0 457.1783063728981 136.26463625757532" height="72.85417942201583" width="244.43135999999998"><g><svg viewBox="0 0 244.43136 136.26463625757532" height="136.26463625757532" width="244.43136"><g id="textblocktransform"><svg viewBox="0 0 244.43136 136.26463625757532" height="136.26463625757532" width="244.43136" id="textblock"><g><svg viewBox="0 0 244.43136 88.5416101734104" height="88.5416101734104" width="244.43136"><g transform="matrix(1,0,0,1,0,0)"><svg width="244.43136" viewBox="4.3 -37 103.79 37.6" height="88.5416101734104" data-palette-color="#ffffff"><g class="wordmark-text-0" data-fill-palette-color="primary" id="text-0"><path d="M26.65 0L4.3 0 4.3-34.9 26.65-34.9 26.65-29.9 9.95-29.9 9.95-20.2 25.1-20.2 25.1-15.2 9.95-15.2 9.95-5 26.65-5 26.65 0ZM52.2 0L31.45 0 31.45-4.4 45.4-21.55 31.9-21.55 31.9-26 51.85-26 51.85-21.8 37.7-4.45 52.2-4.45 52.2 0ZM57.9 0L57.9-37 63.35-37 63.35-21.7 63.6-21.7Q64.45-23.8 66.17-25.2 67.9-26.6 70.9-26.6L70.9-26.6Q74.9-26.6 77.12-23.98 79.34-21.35 79.34-16.5L79.34-16.5 79.34 0 73.9 0 73.9-15.85Q73.9-21.9 69-21.9L69-21.9Q67.95-21.9 66.92-21.63 65.9-21.35 65.09-20.8 64.3-20.25 63.82-19.4 63.35-18.55 63.35-17.45L63.35-17.45 63.35 0 57.9 0ZM102.64 0L102.64-4.3 102.44-4.3Q102.09-3.35 101.52-2.45 100.94-1.55 100.07-0.88 99.19-0.2 97.97 0.2 96.74 0.6 95.14 0.6L95.14 0.6Q91.09 0.6 88.87-2 86.64-4.6 86.64-9.45L86.64-9.45 86.64-26 92.09-26 92.09-10.15Q92.09-4.1 97.09-4.1L97.09-4.1Q98.14-4.1 99.14-4.38 100.14-4.65 100.92-5.2 101.69-5.75 102.17-6.6 102.64-7.45 102.64-8.6L102.64-8.6 102.64-26 108.09-26 108.09 0 102.64 0Z" fill="#ffffff" data-fill-palette-color="primary"></path></g></svg></g></svg></g><g transform="matrix(1,0,0,1,74.91821184000003,109.44415933670844)"><svg viewBox="0 0 169.51314816 26.820476920866874" height="26.820476920866874" width="169.51314816"><g transform="matrix(1,0,0,1,0,0)"><svg width="169.51314816" viewBox="2.1 -35.55 306.82 48.55" height="26.820476920866874" data-palette-color="#ffffff"><path d="M20.55 0.55L20.55 0.55Q16.85 0.55 13.53-0.65 10.2-1.85 7.63-4.13 5.05-6.4 3.58-9.6 2.1-12.8 2.1-16.8L2.1-16.8Q2.1-20.6 3.58-23.75 5.05-26.9 7.58-29.25 10.1-31.6 13.45-32.85 16.8-34.1 20.5-34.1L20.5-34.1Q23.05-34.1 24.78-33.77 26.5-33.45 27.73-32.98 28.95-32.5 29.95-32.15 30.95-31.8 32.1-31.8L32.1-31.8Q32.65-31.8 33.1-31.9 33.55-32 33.9-32.05L33.9-32.05 34.05-31.95Q33.95-31.5 33.85-30.88 33.75-30.25 33.75-29.7L33.75-29.7Q33.75-28.3 33.95-26.9 34.15-25.5 34.35-24.53 34.55-23.55 34.65-23.4L34.65-23.4 33.2-23.4Q32.25-26 30.45-28.08 28.65-30.15 26.2-31.38 23.75-32.6 20.7-32.6L20.7-32.6Q17.95-32.6 15.75-31.35 13.55-30.1 11.98-27.9 10.4-25.7 9.53-22.85 8.65-20 8.65-16.85L8.65-16.85Q8.65-13.85 9.35-11 10.05-8.15 11.5-5.88 12.95-3.6 15.33-2.27 17.7-0.95 21-0.95L21-0.95Q22.65-0.95 24.7-1.5 26.75-2.05 28.4-3.55L28.4-3.55 28.4-10.8Q28.4-12.4 27.9-12.9 27.4-13.4 25.5-13.75L25.5-13.75 22.75-14.3 22.75-15.3 39.45-15.3 39.45-14.3 37.4-13.9Q35.55-13.55 35.02-13.03 34.5-12.5 34.5-10.9L34.5-10.9 34.5-1.4 34.3-1.3Q33.8-1.4 33.35-1.48 32.9-1.55 32.15-1.55L32.15-1.55Q31.3-1.55 30.2-1.28 29.1-1 27.85-0.6L27.85-0.6Q26.35-0.2 24.55 0.18 22.75 0.55 20.55 0.55ZM53.15 0L41.6 0 41.6-0.8 43.4-1.4Q44.15-1.65 44.45-2.05 44.75-2.45 44.75-3.25L44.75-3.25 44.75-17.25Q44.75-18.3 44.42-18.68 44.1-19.05 43.45-19.2L43.45-19.2 41.6-19.7 41.6-20.45Q43.25-20.7 44.52-20.95 45.8-21.2 46.97-21.58 48.15-21.95 49.45-22.45L49.45-22.45 49.9-22.1Q49.6-21.5 49.42-20.5 49.25-19.5 49.25-18.4L49.25-18.4 49.25-17.9 49.6-16.95 49.6-3Q49.6-2.4 49.95-2.02 50.3-1.65 51.05-1.4L51.05-1.4 53.15-0.8 53.15 0ZM49.6-13.4L49.6-13.4 48.7-18.1 54.6-21.65Q55.2-22 55.65-22.13 56.1-22.25 56.55-22.25L56.55-22.25Q57.65-22.25 58.55-21.38 59.45-20.5 59.45-19.1L59.45-19.1Q59.45-18 58.6-17.1 57.75-16.2 56.35-16.2L56.35-16.2Q55.5-16.2 54.9-16.6 54.3-17 53.85-17.4L53.85-17.4Q53.55-17.8 53.2-18.13 52.85-18.45 52.4-18.45L52.4-18.45Q52-18.45 51.32-18.05 50.65-17.65 50.12-16.57 49.6-15.5 49.6-13.4ZM72.05 0.4L72.05 0.4Q68.8 0.4 66.3-1.07 63.8-2.55 62.45-5.08 61.1-7.6 61.1-10.7L61.1-10.7Q61.1-14.1 62.45-16.7 63.8-19.3 66.3-20.75 68.8-22.2 72.05-22.2L72.05-22.2Q75.35-22.2 77.8-20.75 80.25-19.3 81.62-16.8 83-14.3 83-11.1L83-11.1Q83-7.75 81.62-5.15 80.25-2.55 77.8-1.07 75.35 0.4 72.05 0.4ZM72.1-1.05L72.1-1.05Q74.75-1.05 76.2-3.43 77.65-5.8 77.65-10.55L77.65-10.55Q77.65-15.5 76.2-18.13 74.75-20.75 72-20.75L72-20.75Q69.35-20.75 67.9-18.4 66.45-16.05 66.45-11.25L66.45-11.25Q66.45-6.35 67.9-3.7 69.35-1.05 72.1-1.05ZM96.19 0.45L95.14 0.45 86.84-19.5Q86.64-20 86.32-20.23 85.99-20.45 85.34-20.6L85.34-20.6 83.79-20.95 83.79-21.8 95.44-21.8 95.44-20.95 93.44-20.45Q92.69-20.3 92.44-19.93 92.19-19.55 92.44-18.8L92.44-18.8 97.24-6.9 101.74-19.1Q101.94-19.7 101.79-20 101.64-20.3 100.89-20.5L100.89-20.5 98.59-21 98.59-21.8 108.19-21.8 108.19-21 105.84-20.45Q105.19-20.3 105.02-19.95 104.84-19.6 105.14-18.95L105.14-18.95 109.99-6.85 114.49-19.05Q114.74-19.65 114.59-20 114.44-20.35 113.74-20.45L113.74-20.45 111.34-20.95 111.34-21.8 119.99-21.8 119.99-20.95 118.14-20.45Q117.49-20.25 117.17-20.03 116.84-19.8 116.64-19.3L116.64-19.3 108.94 0.45 107.94 0.45 101.84-14.15 96.19 0.45ZM143.29 0.4L143.29 0.4Q138.64 0.4 138.64-5.45L138.64-5.45 138.64-20.25 135.34-20.25 135.34-21.45Q138.59-22 140.19-23.75 141.79-25.5 142.24-28.75L142.24-28.75 143.49-28.75 143.49-21.8 149.64-21.8 149.14-20.25 143.49-20.25 143.49-5.85Q143.49-3.95 144.09-3.25 144.69-2.55 145.74-2.55L145.74-2.55Q146.49-2.55 147.44-2.9 148.39-3.25 149.39-3.8L149.39-3.8 150.04-2.7Q148.14-1.2 146.36-0.4 144.59 0.4 143.29 0.4ZM163.39 0.4L163.39 0.4Q160.14 0.4 157.64-1.07 155.14-2.55 153.79-5.08 152.44-7.6 152.44-10.7L152.44-10.7Q152.44-14.1 153.79-16.7 155.14-19.3 157.64-20.75 160.14-22.2 163.39-22.2L163.39-22.2Q166.69-22.2 169.14-20.75 171.59-19.3 172.96-16.8 174.34-14.3 174.34-11.1L174.34-11.1Q174.34-7.75 172.96-5.15 171.59-2.55 169.14-1.07 166.69 0.4 163.39 0.4ZM163.44-1.05L163.44-1.05Q166.09-1.05 167.54-3.43 168.99-5.8 168.99-10.55L168.99-10.55Q168.99-15.5 167.54-18.13 166.09-20.75 163.34-20.75L163.34-20.75Q160.69-20.75 159.24-18.4 157.79-16.05 157.79-11.25L157.79-11.25Q157.79-6.35 159.24-3.7 160.69-1.05 163.44-1.05ZM187.88 13L187.88 13Q184.73 13 182.33 12.3 179.93 11.6 178.56 10.3 177.18 9 177.18 7.2L177.18 7.2Q177.18 5.65 178.33 4.35 179.48 3.05 181.48 2.2 183.48 1.35 186.08 1.25L186.08 1.25 187.23 1.55Q184.33 2 183.08 3.28 181.83 4.55 181.83 6L181.83 6Q181.83 7.8 183.73 9.25 185.63 10.7 189.38 10.7L189.38 10.7Q193.18 10.7 195.53 9.35 197.88 8 197.88 5.85L197.88 5.85Q197.88 3.75 195.93 2.6 193.98 1.45 190.88 1.45L190.88 1.45Q189.53 1.45 188.13 1.55 186.73 1.65 185.28 1.65L185.28 1.65Q182.28 1.65 180.31 0.53 178.33-0.6 178.33-2.65L178.33-2.65Q178.33-2.75 178.38-2.88 178.43-3 178.63-3.15L178.63-3.15Q180.03-4.15 181.11-5.15 182.18-6.15 182.98-7.35L182.98-7.35 182.98-7.55Q180.98-8.65 179.93-10.48 178.88-12.3 178.88-14.3L178.88-14.3Q178.88-17.75 181.28-19.98 183.68-22.2 187.58-22.2L187.58-22.2Q188.83-22.2 189.96-21.95 191.08-21.7 192.13-21.35L192.13-21.35Q193.08-21.1 193.96-20.9 194.83-20.7 195.63-20.7L195.63-20.7Q196.98-20.7 196.98-21.55L196.98-21.55Q196.98-21.95 196.83-22.33 196.68-22.7 196.38-23.15L196.38-23.15Q196.18-23.5 195.98-23.88 195.78-24.25 195.78-24.75L195.78-24.75Q195.78-25.75 196.41-26.23 197.03-26.7 197.83-26.7L197.83-26.7Q198.93-26.7 199.56-25.85 200.18-25 200.18-23.8L200.18-23.8Q200.18-21.15 199.13-20.03 198.08-18.9 196.58-18.9L196.58-18.9Q195.48-18.9 194.38-19.45L194.38-19.45 194.38-19.15Q195.38-17.95 195.78-16.78 196.18-15.6 196.18-14L196.18-14Q196.18-11.95 195.18-10.25 194.18-8.55 192.33-7.55 190.48-6.55 187.88-6.5L187.88-6.5Q185.33-6.45 184.03-5.8 182.73-5.15 182.73-4.3L182.73-4.3Q182.73-3.55 183.46-3.18 184.18-2.8 185.48-2.8L185.48-2.8Q186.68-2.8 188.33-2.88 189.98-2.95 191.43-2.95L191.43-2.95Q194.08-2.95 196.28-2.27 198.48-1.6 199.78-0.1 201.08 1.4 201.08 3.85L201.08 3.85Q201.08 6.55 199.38 8.63 197.68 10.7 194.71 11.85 191.73 13 187.88 13ZM187.73-8.15L187.73-8.15Q189.43-8.15 190.38-9.7 191.33-11.25 191.33-14.2L191.33-14.2Q191.33-17.2 190.36-18.9 189.38-20.6 187.58-20.6L187.58-20.6Q185.93-20.6 184.98-19.1 184.03-17.6 184.03-14.7L184.03-14.7Q184.03-11.65 185.01-9.9 185.98-8.15 187.73-8.15ZM212.38 0.4L212.38 0.4Q209.28 0.4 206.91-1.07 204.53-2.55 203.16-5.05 201.78-7.55 201.78-10.65L201.78-10.65Q201.78-14.05 203.23-16.65 204.68-19.25 207.21-20.75 209.73-22.25 212.83-22.25L212.83-22.25Q215.38-22.25 217.26-21.05 219.13-19.85 220.18-17.82 221.23-15.8 221.23-13.25L221.23-13.25Q221.23-12.8 220.98-12.48 220.73-12.15 220.23-12.15L220.23-12.15 204.73-12.15 204.73-13.7 215.33-14.1Q216.13-14.1 216.13-15.1L216.13-15.1Q216.13-17.6 215.18-19.18 214.23-20.75 212.43-20.75L212.43-20.75Q209.98-20.75 208.51-18.28 207.03-15.8 207.03-11.75L207.03-11.75Q207.03-8.9 208.06-6.93 209.08-4.95 210.78-3.95 212.48-2.95 214.48-2.95L214.48-2.95Q217.48-2.95 220.53-5.5L220.53-5.5 221.28-4.85Q219.38-2.1 217.08-0.85 214.78 0.4 212.38 0.4ZM231.88 0.4L231.88 0.4Q227.23 0.4 227.23-5.45L227.23-5.45 227.23-20.25 223.93-20.25 223.93-21.45Q227.18-22 228.78-23.75 230.38-25.5 230.83-28.75L230.83-28.75 232.08-28.75 232.08-21.8 238.23-21.8 237.73-20.25 232.08-20.25 232.08-5.85Q232.08-3.95 232.68-3.25 233.28-2.55 234.33-2.55L234.33-2.55Q235.08-2.55 236.03-2.9 236.98-3.25 237.98-3.8L237.98-3.8 238.63-2.7Q236.73-1.2 234.95-0.4 233.18 0.4 231.88 0.4ZM266.18 0L255.03 0 255.03-0.8 256.83-1.4Q257.58-1.6 257.88-2.08 258.18-2.55 258.18-3.25L258.18-3.25 258.18-14Q258.18-16.25 256.98-17.48 255.78-18.7 253.48-18.7L253.48-18.7Q251.23-18.7 249.9-17.25 248.58-15.8 248.58-13.7L248.58-13.7 247.58-18.8 248.53-18.8Q249.88-19.45 251.48-20.3 253.08-21.15 254.53-21.95L254.53-21.95Q254.78-22.05 255.05-22.13 255.33-22.2 255.58-22.2L255.58-22.2Q259.13-22.2 261.08-20.43 263.03-18.65 263.03-15.25L263.03-15.25 263.03-3Q263.03-2.3 263.43-1.93 263.83-1.55 264.38-1.4L264.38-1.4 266.18-0.8 266.18 0ZM251.68 0L240.58 0 240.58-0.8 242.38-1.4Q243.08-1.6 243.4-2.08 243.73-2.55 243.73-3.25L243.73-3.25 243.73-30.35Q243.73-31.4 243.43-31.78 243.13-32.15 242.48-32.3L242.48-32.3 240.58-32.8 240.58-33.5Q243.03-33.9 244.93-34.3 246.83-34.7 248.78-35.55L248.78-35.55 249.28-35.2Q248.88-34.4 248.73-33.25 248.58-32.1 248.58-30.6L248.58-30.6 248.58-3Q248.58-2.3 248.95-1.93 249.33-1.55 249.88-1.4L249.88-1.4 251.68-0.8 251.68 0ZM279.02 0.4L279.02 0.4Q275.92 0.4 273.55-1.07 271.17-2.55 269.8-5.05 268.42-7.55 268.42-10.65L268.42-10.65Q268.42-14.05 269.87-16.65 271.32-19.25 273.85-20.75 276.37-22.25 279.47-22.25L279.47-22.25Q282.02-22.25 283.9-21.05 285.77-19.85 286.82-17.82 287.87-15.8 287.87-13.25L287.87-13.25Q287.87-12.8 287.62-12.48 287.37-12.15 286.87-12.15L286.87-12.15 271.37-12.15 271.37-13.7 281.97-14.1Q282.77-14.1 282.77-15.1L282.77-15.1Q282.77-17.6 281.82-19.18 280.87-20.75 279.07-20.75L279.07-20.75Q276.62-20.75 275.15-18.28 273.67-15.8 273.67-11.75L273.67-11.75Q273.67-8.9 274.7-6.93 275.72-4.95 277.42-3.95 279.12-2.95 281.12-2.95L281.12-2.95Q284.12-2.95 287.17-5.5L287.17-5.5 287.92-4.85Q286.02-2.1 283.72-0.85 281.42 0.4 279.02 0.4ZM302.62 0L291.07 0 291.07-0.8 292.87-1.4Q293.62-1.65 293.92-2.05 294.22-2.45 294.22-3.25L294.22-3.25 294.22-17.25Q294.22-18.3 293.9-18.68 293.57-19.05 292.92-19.2L292.92-19.2 291.07-19.7 291.07-20.45Q292.72-20.7 294-20.95 295.27-21.2 296.45-21.58 297.62-21.95 298.92-22.45L298.92-22.45 299.37-22.1Q299.07-21.5 298.9-20.5 298.72-19.5 298.72-18.4L298.72-18.4 298.72-17.9 299.07-16.95 299.07-3Q299.07-2.4 299.42-2.02 299.77-1.65 300.52-1.4L300.52-1.4 302.62-0.8 302.62 0ZM299.07-13.4L299.07-13.4 298.17-18.1 304.07-21.65Q304.67-22 305.12-22.13 305.57-22.25 306.02-22.25L306.02-22.25Q307.12-22.25 308.02-21.38 308.92-20.5 308.92-19.1L308.92-19.1Q308.92-18 308.07-17.1 307.22-16.2 305.82-16.2L305.82-16.2Q304.97-16.2 304.37-16.6 303.77-17 303.32-17.4L303.32-17.4Q303.02-17.8 302.67-18.13 302.32-18.45 301.87-18.45L301.87-18.45Q301.47-18.45 300.8-18.05 300.12-17.65 299.6-16.57 299.07-15.5 299.07-13.4Z" opacity="1" transform="matrix(1,0,0,1,0,0)" fill="#ffffff" class="slogan-text-1" data-fill-palette-color="secondary" id="text-1"></path></svg></g></svg></g></svg></g></svg></g><g transform="matrix(1,0,0,1,265.3339091632981,31.828037642009534)"><svg viewBox="0 0 191.8443972096 72.60856097355625" height="72.60856097355625" width="191.8443972096"><g><svg xmlns="http://www.w3.org/2000/svg" xmlns:xlink="http://www.w3.org/1999/xlink" version="1.1" x="0" y="0" viewBox="0.4999999999999858 31.235408727914376 99.10875596485387 37.51031698165903" enable-background="new 0 0 100 100" xml:space="preserve" height="72.60856097355625" width="191.8443972096" class="icon-icon-0" data-fill-palette-color="accent" id="icon-0"></svg></g></svg></g></svg></g></svg></g><g><path d="M245.816 0c68.262 0 123.6 55.338 123.6 123.6 0 68.262-55.338 123.6-123.6 123.6-53.511 0-99.08-34.005-116.276-81.585l2.273 0c17.098 46.378 61.688 79.451 114.003 79.45 67.084 0 121.465-54.382 121.465-121.465 0-67.084-54.382-121.465-121.465-121.465-52.315 0-96.905 33.073-114.003 79.45l-2.273 0c17.196-47.58 62.764-81.585 116.276-81.585z" fill="#ffffff" stroke="transparent" data-fill-palette-color="tertiary"></path></g></svg></g><defs></defs><mask id="3c2dc1ea-336d-4d32-89e2-7e5fec440f30"><g id="SvgjsG3273"><svg viewBox="0 0 395.52 247.2" height="247.2" width="395.52"><g><svg></svg></g><g><svg viewBox="0 0 395.52 247.2" height="247.2" width="395.52"><g transform="matrix(1,0,0,1,75.54432,87.17291028899209)"><svg viewBox="0 0 244.43135999999998 72.85417942201583" height="72.85417942201583" width="244.43135999999998"><g><svg viewBox="0 0 457.1783063728981 136.26463625757532" height="72.85417942201583" width="244.43135999999998"><g><svg viewBox="0 0 244.43136 136.26463625757532" height="136.26463625757532" width="244.43136"><g id="SvgjsG3272"><svg viewBox="0 0 244.43136 136.26463625757532" height="136.26463625757532" width="244.43136" id="SvgjsSvg3271"><g><svg viewBox="0 0 244.43136 88.5416101734104" height="88.5416101734104" width="244.43136"><g transform="matrix(1,0,0,1,0,0)"><svg width="244.43136" viewBox="4.3 -37 103.79 37.6" height="88.5416101734104" data-palette-color="#ffffff"><g class="wordmark-text-0" data-fill-palette-color="primary" id="SvgjsG3270"><path d="M26.65 0L4.3 0 4.3-34.9 26.65-34.9 26.65-29.9 9.95-29.9 9.95-20.2 25.1-20.2 25.1-15.2 9.95-15.2 9.95-5 26.65-5 26.65 0ZM52.2 0L31.45 0 31.45-4.4 45.4-21.55 31.9-21.55 31.9-26 51.85-26 51.85-21.8 37.7-4.45 52.2-4.45 52.2 0ZM57.9 0L57.9-37 63.35-37 63.35-21.7 63.6-21.7Q64.45-23.8 66.17-25.2 67.9-26.6 70.9-26.6L70.9-26.6Q74.9-26.6 77.12-23.98 79.34-21.35 79.34-16.5L79.34-16.5 79.34 0 73.9 0 73.9-15.85Q73.9-21.9 69-21.9L69-21.9Q67.95-21.9 66.92-21.63 65.9-21.35 65.09-20.8 64.3-20.25 63.82-19.4 63.35-18.55 63.35-17.45L63.35-17.45 63.35 0 57.9 0ZM102.64 0L102.64-4.3 102.44-4.3Q102.09-3.35 101.52-2.45 100.94-1.55 100.07-0.88 99.19-0.2 97.97 0.2 96.74 0.6 95.14 0.6L95.14 0.6Q91.09 0.6 88.87-2 86.64-4.6 86.64-9.45L86.64-9.45 86.64-26 92.09-26 92.09-10.15Q92.09-4.1 97.09-4.1L97.09-4.1Q98.14-4.1 99.14-4.38 100.14-4.65 100.92-5.2 101.69-5.75 102.17-6.6 102.64-7.45 102.64-8.6L102.64-8.6 102.64-26 108.09-26 108.09 0 102.64 0Z" fill="black"></path></g></svg></g></svg></g><g transform="matrix(1,0,0,1,74.91821184000003,109.44415933670844)"><svg viewBox="0 0 169.51314816 26.820476920866874" height="26.820476920866874" width="169.51314816"><g transform="matrix(1,0,0,1,0,0)"><svg width="169.51314816" viewBox="2.1 -35.55 306.82 48.55" height="26.820476920866874" data-palette-color="#ffffff"><path d="M20.55 0.55L20.55 0.55Q16.85 0.55 13.53-0.65 10.2-1.85 7.63-4.13 5.05-6.4 3.58-9.6 2.1-12.8 2.1-16.8L2.1-16.8Q2.1-20.6 3.58-23.75 5.05-26.9 7.58-29.25 10.1-31.6 13.45-32.85 16.8-34.1 20.5-34.1L20.5-34.1Q23.05-34.1 24.78-33.77 26.5-33.45 27.73-32.98 28.95-32.5 29.95-32.15 30.95-31.8 32.1-31.8L32.1-31.8Q32.65-31.8 33.1-31.9 33.55-32 33.9-32.05L33.9-32.05 34.05-31.95Q33.95-31.5 33.85-30.88 33.75-30.25 33.75-29.7L33.75-29.7Q33.75-28.3 33.95-26.9 34.15-25.5 34.35-24.53 34.55-23.55 34.65-23.4L34.65-23.4 33.2-23.4Q32.25-26 30.45-28.08 28.65-30.15 26.2-31.38 23.75-32.6 20.7-32.6L20.7-32.6Q17.95-32.6 15.75-31.35 13.55-30.1 11.98-27.9 10.4-25.7 9.53-22.85 8.65-20 8.65-16.85L8.65-16.85Q8.65-13.85 9.35-11 10.05-8.15 11.5-5.88 12.95-3.6 15.33-2.27 17.7-0.95 21-0.95L21-0.95Q22.65-0.95 24.7-1.5 26.75-2.05 28.4-3.55L28.4-3.55 28.4-10.8Q28.4-12.4 27.9-12.9 27.4-13.4 25.5-13.75L25.5-13.75 22.75-14.3 22.75-15.3 39.45-15.3 39.45-14.3 37.4-13.9Q35.55-13.55 35.02-13.03 34.5-12.5 34.5-10.9L34.5-10.9 34.5-1.4 34.3-1.3Q33.8-1.4 33.35-1.48 32.9-1.55 32.15-1.55L32.15-1.55Q31.3-1.55 30.2-1.28 29.1-1 27.85-0.6L27.85-0.6Q26.35-0.2 24.55 0.18 22.75 0.55 20.55 0.55ZM53.15 0L41.6 0 41.6-0.8 43.4-1.4Q44.15-1.65 44.45-2.05 44.75-2.45 44.75-3.25L44.75-3.25 44.75-17.25Q44.75-18.3 44.42-18.68 44.1-19.05 43.45-19.2L43.45-19.2 41.6-19.7 41.6-20.45Q43.25-20.7 44.52-20.95 45.8-21.2 46.97-21.58 48.15-21.95 49.45-22.45L49.45-22.45 49.9-22.1Q49.6-21.5 49.42-20.5 49.25-19.5 49.25-18.4L49.25-18.4 49.25-17.9 49.6-16.95 49.6-3Q49.6-2.4 49.95-2.02 50.3-1.65 51.05-1.4L51.05-1.4 53.15-0.8 53.15 0ZM49.6-13.4L49.6-13.4 48.7-18.1 54.6-21.65Q55.2-22 55.65-22.13 56.1-22.25 56.55-22.25L56.55-22.25Q57.65-22.25 58.55-21.38 59.45-20.5 59.45-19.1L59.45-19.1Q59.45-18 58.6-17.1 57.75-16.2 56.35-16.2L56.35-16.2Q55.5-16.2 54.9-16.6 54.3-17 53.85-17.4L53.85-17.4Q53.55-17.8 53.2-18.13 52.85-18.45 52.4-18.45L52.4-18.45Q52-18.45 51.32-18.05 50.65-17.65 50.12-16.57 49.6-15.5 49.6-13.4ZM72.05 0.4L72.05 0.4Q68.8 0.4 66.3-1.07 63.8-2.55 62.45-5.08 61.1-7.6 61.1-10.7L61.1-10.7Q61.1-14.1 62.45-16.7 63.8-19.3 66.3-20.75 68.8-22.2 72.05-22.2L72.05-22.2Q75.35-22.2 77.8-20.75 80.25-19.3 81.62-16.8 83-14.3 83-11.1L83-11.1Q83-7.75 81.62-5.15 80.25-2.55 77.8-1.07 75.35 0.4 72.05 0.4ZM72.1-1.05L72.1-1.05Q74.75-1.05 76.2-3.43 77.65-5.8 77.65-10.55L77.65-10.55Q77.65-15.5 76.2-18.13 74.75-20.75 72-20.75L72-20.75Q69.35-20.75 67.9-18.4 66.45-16.05 66.45-11.25L66.45-11.25Q66.45-6.35 67.9-3.7 69.35-1.05 72.1-1.05ZM96.19 0.45L95.14 0.45 86.84-19.5Q86.64-20 86.32-20.23 85.99-20.45 85.34-20.6L85.34-20.6 83.79-20.95 83.79-21.8 95.44-21.8 95.44-20.95 93.44-20.45Q92.69-20.3 92.44-19.93 92.19-19.55 92.44-18.8L92.44-18.8 97.24-6.9 101.74-19.1Q101.94-19.7 101.79-20 101.64-20.3 100.89-20.5L100.89-20.5 98.59-21 98.59-21.8 108.19-21.8 108.19-21 105.84-20.45Q105.19-20.3 105.02-19.95 104.84-19.6 105.14-18.95L105.14-18.95 109.99-6.85 114.49-19.05Q114.74-19.65 114.59-20 114.44-20.35 113.74-20.45L113.74-20.45 111.34-20.95 111.34-21.8 119.99-21.8 119.99-20.95 118.14-20.45Q117.49-20.25 117.17-20.03 116.84-19.8 116.64-19.3L116.64-19.3 108.94 0.45 107.94 0.45 101.84-14.15 96.19 0.45ZM143.29 0.4L143.29 0.4Q138.64 0.4 138.64-5.45L138.64-5.45 138.64-20.25 135.34-20.25 135.34-21.45Q138.59-22 140.19-23.75 141.79-25.5 142.24-28.75L142.24-28.75 143.49-28.75 143.49-21.8 149.64-21.8 149.14-20.25 143.49-20.25 143.49-5.85Q143.49-3.95 144.09-3.25 144.69-2.55 145.74-2.55L145.74-2.55Q146.49-2.55 147.44-2.9 148.39-3.25 149.39-3.8L149.39-3.8 150.04-2.7Q148.14-1.2 146.36-0.4 144.59 0.4 143.29 0.4ZM163.39 0.4L163.39 0.4Q160.14 0.4 157.64-1.07 155.14-2.55 153.79-5.08 152.44-7.6 152.44-10.7L152.44-10.7Q152.44-14.1 153.79-16.7 155.14-19.3 157.64-20.75 160.14-22.2 163.39-22.2L163.39-22.2Q166.69-22.2 169.14-20.75 171.59-19.3 172.96-16.8 174.34-14.3 174.34-11.1L174.34-11.1Q174.34-7.75 172.96-5.15 171.59-2.55 169.14-1.07 166.69 0.4 163.39 0.4ZM163.44-1.05L163.44-1.05Q166.09-1.05 167.54-3.43 168.99-5.8 168.99-10.55L168.99-10.55Q168.99-15.5 167.54-18.13 166.09-20.75 163.34-20.75L163.34-20.75Q160.69-20.75 159.24-18.4 157.79-16.05 157.79-11.25L157.79-11.25Q157.79-6.35 159.24-3.7 160.69-1.05 163.44-1.05ZM187.88 13L187.88 13Q184.73 13 182.33 12.3 179.93 11.6 178.56 10.3 177.18 9 177.18 7.2L177.18 7.2Q177.18 5.65 178.33 4.35 179.48 3.05 181.48 2.2 183.48 1.35 186.08 1.25L186.08 1.25 187.23 1.55Q184.33 2 183.08 3.28 181.83 4.55 181.83 6L181.83 6Q181.83 7.8 183.73 9.25 185.63 10.7 189.38 10.7L189.38 10.7Q193.18 10.7 195.53 9.35 197.88 8 197.88 5.85L197.88 5.85Q197.88 3.75 195.93 2.6 193.98 1.45 190.88 1.45L190.88 1.45Q189.53 1.45 188.13 1.55 186.73 1.65 185.28 1.65L185.28 1.65Q182.28 1.65 180.31 0.53 178.33-0.6 178.33-2.65L178.33-2.65Q178.33-2.75 178.38-2.88 178.43-3 178.63-3.15L178.63-3.15Q180.03-4.15 181.11-5.15 182.18-6.15 182.98-7.35L182.98-7.35 182.98-7.55Q180.98-8.65 179.93-10.48 178.88-12.3 178.88-14.3L178.88-14.3Q178.88-17.75 181.28-19.98 183.68-22.2 187.58-22.2L187.58-22.2Q188.83-22.2 189.96-21.95 191.08-21.7 192.13-21.35L192.13-21.35Q193.08-21.1 193.96-20.9 194.83-20.7 195.63-20.7L195.63-20.7Q196.98-20.7 196.98-21.55L196.98-21.55Q196.98-21.95 196.83-22.33 196.68-22.7 196.38-23.15L196.38-23.15Q196.18-23.5 195.98-23.88 195.78-24.25 195.78-24.75L195.78-24.75Q195.78-25.75 196.41-26.23 197.03-26.7 197.83-26.7L197.83-26.7Q198.93-26.7 199.56-25.85 200.18-25 200.18-23.8L200.18-23.8Q200.18-21.15 199.13-20.03 198.08-18.9 196.58-18.9L196.58-18.9Q195.48-18.9 194.38-19.45L194.38-19.45 194.38-19.15Q195.38-17.95 195.78-16.78 196.18-15.6 196.18-14L196.18-14Q196.18-11.95 195.18-10.25 194.18-8.55 192.33-7.55 190.48-6.55 187.88-6.5L187.88-6.5Q185.33-6.45 184.03-5.8 182.73-5.15 182.73-4.3L182.73-4.3Q182.73-3.55 183.46-3.18 184.18-2.8 185.48-2.8L185.48-2.8Q186.68-2.8 188.33-2.88 189.98-2.95 191.43-2.95L191.43-2.95Q194.08-2.95 196.28-2.27 198.48-1.6 199.78-0.1 201.08 1.4 201.08 3.85L201.08 3.85Q201.08 6.55 199.38 8.63 197.68 10.7 194.71 11.85 191.73 13 187.88 13ZM187.73-8.15L187.73-8.15Q189.43-8.15 190.38-9.7 191.33-11.25 191.33-14.2L191.33-14.2Q191.33-17.2 190.36-18.9 189.38-20.6 187.58-20.6L187.58-20.6Q185.93-20.6 184.98-19.1 184.03-17.6 184.03-14.7L184.03-14.7Q184.03-11.65 185.01-9.9 185.98-8.15 187.73-8.15ZM212.38 0.4L212.38 0.4Q209.28 0.4 206.91-1.07 204.53-2.55 203.16-5.05 201.78-7.55 201.78-10.65L201.78-10.65Q201.78-14.05 203.23-16.65 204.68-19.25 207.21-20.75 209.73-22.25 212.83-22.25L212.83-22.25Q215.38-22.25 217.26-21.05 219.13-19.85 220.18-17.82 221.23-15.8 221.23-13.25L221.23-13.25Q221.23-12.8 220.98-12.48 220.73-12.15 220.23-12.15L220.23-12.15 204.73-12.15 204.73-13.7 215.33-14.1Q216.13-14.1 216.13-15.1L216.13-15.1Q216.13-17.6 215.18-19.18 214.23-20.75 212.43-20.75L212.43-20.75Q209.98-20.75 208.51-18.28 207.03-15.8 207.03-11.75L207.03-11.75Q207.03-8.9 208.06-6.93 209.08-4.95 210.78-3.95 212.48-2.95 214.48-2.95L214.48-2.95Q217.48-2.95 220.53-5.5L220.53-5.5 221.28-4.85Q219.38-2.1 217.08-0.85 214.78 0.4 212.38 0.4ZM231.88 0.4L231.88 0.4Q227.23 0.4 227.23-5.45L227.23-5.45 227.23-20.25 223.93-20.25 223.93-21.45Q227.18-22 228.78-23.75 230.38-25.5 230.83-28.75L230.83-28.75 232.08-28.75 232.08-21.8 238.23-21.8 237.73-20.25 232.08-20.25 232.08-5.85Q232.08-3.95 232.68-3.25 233.28-2.55 234.33-2.55L234.33-2.55Q235.08-2.55 236.03-2.9 236.98-3.25 237.98-3.8L237.98-3.8 238.63-2.7Q236.73-1.2 234.95-0.4 233.18 0.4 231.88 0.4ZM266.18 0L255.03 0 255.03-0.8 256.83-1.4Q257.58-1.6 257.88-2.08 258.18-2.55 258.18-3.25L258.18-3.25 258.18-14Q258.18-16.25 256.98-17.48 255.78-18.7 253.48-18.7L253.48-18.7Q251.23-18.7 249.9-17.25 248.58-15.8 248.58-13.7L248.58-13.7 247.58-18.8 248.53-18.8Q249.88-19.45 251.48-20.3 253.08-21.15 254.53-21.95L254.53-21.95Q254.78-22.05 255.05-22.13 255.33-22.2 255.58-22.2L255.58-22.2Q259.13-22.2 261.08-20.43 263.03-18.65 263.03-15.25L263.03-15.25 263.03-3Q263.03-2.3 263.43-1.93 263.83-1.55 264.38-1.4L264.38-1.4 266.18-0.8 266.18 0ZM251.68 0L240.58 0 240.58-0.8 242.38-1.4Q243.08-1.6 243.4-2.08 243.73-2.55 243.73-3.25L243.73-3.25 243.73-30.35Q243.73-31.4 243.43-31.78 243.13-32.15 242.48-32.3L242.48-32.3 240.58-32.8 240.58-33.5Q243.03-33.9 244.93-34.3 246.83-34.7 248.78-35.55L248.78-35.55 249.28-35.2Q248.88-34.4 248.73-33.25 248.58-32.1 248.58-30.6L248.58-30.6 248.58-3Q248.58-2.3 248.95-1.93 249.33-1.55 249.88-1.4L249.88-1.4 251.68-0.8 251.68 0ZM279.02 0.4L279.02 0.4Q275.92 0.4 273.55-1.07 271.17-2.55 269.8-5.05 268.42-7.55 268.42-10.65L268.42-10.65Q268.42-14.05 269.87-16.65 271.32-19.25 273.85-20.75 276.37-22.25 279.47-22.25L279.47-22.25Q282.02-22.25 283.9-21.05 285.77-19.85 286.82-17.82 287.87-15.8 287.87-13.25L287.87-13.25Q287.87-12.8 287.62-12.48 287.37-12.15 286.87-12.15L286.87-12.15 271.37-12.15 271.37-13.7 281.97-14.1Q282.77-14.1 282.77-15.1L282.77-15.1Q282.77-17.6 281.82-19.18 280.87-20.75 279.07-20.75L279.07-20.75Q276.62-20.75 275.15-18.28 273.67-15.8 273.67-11.75L273.67-11.75Q273.67-8.9 274.7-6.93 275.72-4.95 277.42-3.95 279.12-2.95 281.12-2.95L281.12-2.95Q284.12-2.95 287.17-5.5L287.17-5.5 287.92-4.85Q286.02-2.1 283.72-0.85 281.42 0.4 279.02 0.4ZM302.62 0L291.07 0 291.07-0.8 292.87-1.4Q293.62-1.65 293.92-2.05 294.22-2.45 294.22-3.25L294.22-3.25 294.22-17.25Q294.22-18.3 293.9-18.68 293.57-19.05 292.92-19.2L292.92-19.2 291.07-19.7 291.07-20.45Q292.72-20.7 294-20.95 295.27-21.2 296.45-21.58 297.62-21.95 298.92-22.45L298.92-22.45 299.37-22.1Q299.07-21.5 298.9-20.5 298.72-19.5 298.72-18.4L298.72-18.4 298.72-17.9 299.07-16.95 299.07-3Q299.07-2.4 299.42-2.02 299.77-1.65 300.52-1.4L300.52-1.4 302.62-0.8 302.62 0ZM299.07-13.4L299.07-13.4 298.17-18.1 304.07-21.65Q304.67-22 305.12-22.13 305.57-22.25 306.02-22.25L306.02-22.25Q307.12-22.25 308.02-21.38 308.92-20.5 308.92-19.1L308.92-19.1Q308.92-18 308.07-17.1 307.22-16.2 305.82-16.2L305.82-16.2Q304.97-16.2 304.37-16.6 303.77-17 303.32-17.4L303.32-17.4Q303.02-17.8 302.67-18.13 302.32-18.45 301.87-18.45L301.87-18.45Q301.47-18.45 300.8-18.05 300.12-17.65 299.6-16.57 299.07-15.5 299.07-13.4Z" opacity="1" transform="matrix(1,0,0,1,0,0)" fill="black" class="slogan-text-1" id="SvgjsPath3269"></path></svg></g></svg></g></svg></g></svg></g><g transform="matrix(1,0,0,1,265.3339091632981,31.828037642009534)"><svg viewBox="0 0 191.8443972096 72.60856097355625" height="72.60856097355625" width="191.8443972096"><g><svg xmlns="http://www.w3.org/2000/svg" xmlns:xlink="http://www.w3.org/1999/xlink" version="1.1" x="0" y="0" viewBox="0.4999999999999858 31.235408727914376 99.10875596485387 37.51031698165903" enable-background="new 0 0 100 100" xml:space="preserve" height="72.60856097355625" width="191.8443972096" class="icon-icon-0" data-fill-palette-color="accent" id="SvgjsSvg3268"><g fill="white"><path d="M28.9 32.5c8.6-0.4 15.8 4.3 19.1 6.3 3.2 2 13.3 7.6 16.6 8.6 3.2 1.1 10.5 0.3 14.8 1.1 4.2 0.8 5.5 3 5.5 4.2 0 1.3-2.5 4.5-10.3 5.4-7.7 0.9-14.9-0.5-20.8-1.8-5.9-1.4-10.6 0.5-11.3 0.8-0.6 0.3 2.5-1.2 9.1 0.3 6.6 1.4 13 3.1 18.5 2.8 5.5-0.3 12.2-1.9 14.8-4.2 2.6-2.3 1.4-6.3-1.3-7.3 0 0 2.6-3 4.1-5.5 1.4-2.5 4-8.1 5.1-9.6 1.2-1.5 4-3.1 5.8-2 1.8 1.1 0.8 4.9 0 6.8-0.8 1.9-6.6 14.2-13.8 20.3-7.2 6.1-21.3 9.7-25.3 10-4 0.3-14.9-0.9-20.6-2.9-5.8-2-22.1-12.2-38.4-5.7C0.5 60.2 6.3 33.7 28.9 32.5z" fill="white"></path><path d="M91.2 32.3c-1.6 1.2-3.7 5.9-4.4 7.7-0.7 1.9-3 4.5-4 5.6-1 1.1-2 2.8-0.6 2 1.4-0.8 3.5-3.8 4.4-5.4 1-1.6 2.6-4.6 3.2-6.1 0.6-1.5 1.1-2.2 1.7-2.9C92.1 32.5 92.1 31.6 91.2 32.3z" fill="white"></path><path d="M86.7 35.9c-0.4-0.6-1.4 2-1.9 2.8-0.5 0.8-2 3.1-3 4.1-1 1-2.5 2.5-3.7 3.1-1.2 0.5-0.7 1 0.4 1 1.1 0 3-1.5 3.5-2 0.6-0.5 1.9-2.5 2.7-3.8C85.5 39.7 87.3 36.8 86.7 35.9z" fill="white"></path><path d="M76.1 44.9c-0.3-0.4-1.5 0.1-2 0.5-0.5 0.4-1.7 0.8-2.3 0.9-0.5 0.1-0.1 1.1 1.7 0.8 1.8-0.3 2-0.9 2.2-1.1C75.8 45.9 76.5 45.4 76.1 44.9z" fill="white"></path></g></svg></g></svg></g></svg></g></svg></g><g><path d="M245.816 0c68.262 0 123.6 55.338 123.6 123.6 0 68.262-55.338 123.6-123.6 123.6-53.511 0-99.08-34.005-116.276-81.585l2.273 0c17.098 46.378 61.688 79.451 114.003 79.45 67.084 0 121.465-54.382 121.465-121.465 0-67.084-54.382-121.465-121.465-121.465-52.315 0-96.905 33.073-114.003 79.45l-2.273 0c17.196-47.58 62.764-81.585 116.276-81.585z" fill="black" stroke="transparent"></path></g></svg></g><defs><mask></mask></defs></svg><rect width="395.52" height="247.2" fill="black" stroke="none" visibility="hidden"></rect></g></mask><linearGradient x1="0.054" x2="0.941" y1="0.5" y2="0.5" id="595e5627-fe63-4df1-8ff9-f2f225486b7e"><stop stop-color="#8c8c8c" offset="0"></stop><stop stop-color="#e3e4e5" offset="0.498"></stop><stop stop-color="#8c8c8c" offset="1"></stop></linearGradient><rect width="395.52" height="247.2" fill="url(#595e5627-fe63-4df1-8ff9-f2f225486b7e)" mask="url(#3c2dc1ea-336d-4d32-89e2-7e5fec440f30)" data-fill-palette-color="accent"></rect></svg><rect width="395.52" height="247.2" fill="none" stroke="none" visibility="hidden"></rect></g></svg></g></svg>